<?xml version="1.0" standalone="no"?>
<!DOCTYPE svg PUBLIC "-//W3C//DTD SVG 20010904//EN"
 "http://www.w3.org/TR/2001/REC-SVG-20010904/DTD/svg10.dtd">
<svg version="1.0" xmlns="http://www.w3.org/2000/svg"
 width="512.000000pt" height="512.000000pt" viewBox="0 0 512.000000 512.000000"
 preserveAspectRatio="xMidYMid meet">
<metadata>
Created by potrace 1.14, written by Peter Selinger 2001-2017
</metadata>
<g transform="translate(0.000000,512.000000) scale(0.100000,-0.100000)"
fill="#000000" stroke="none">
<path d="M0 2560 l0 -2560 2560 0 2560 0 0 2560 0 2560 -2560 0 -2560 0 0
-2560z m3069 1735 c19 -11 43 -33 55 -48 20 -27 21 -42 24 -282 l3 -253 67
-16 c153 -38 325 -149 413 -266 106 -141 120 -199 126 -520 l5 -256 97 -33
c184 -63 221 -93 221 -181 0 -37 -97 -309 -367 -1026 -2 -7 23 -18 62 -28 37
-9 97 -32 133 -50 93 -47 369 -251 387 -286 35 -67 8 -163 -54 -195 -35 -18
-103 -20 -134 -4 -12 7 -87 59 -166 117 -158 115 -217 142 -309 142 -72 0
-128 -19 -199 -66 -111 -74 -209 -103 -347 -104 -116 0 -188 19 -321 88 -110
57 -110 57 -200 57 l-91 0 -89 -52 c-114 -65 -196 -93 -300 -100 -141 -10
-270 24 -394 105 -76 49 -143 67 -222 58 -80 -8 -118 -29 -302 -167 -154 -116
-158 -119 -209 -119 -98 0 -157 67 -145 167 6 56 15 65 209 211 160 121 233
162 318 182 30 7 60 14 67 16 14 4 24 -26 -211 611 -86 232 -156 433 -156 448
0 34 23 78 55 103 14 11 77 39 140 62 l115 42 0 247 c0 280 8 331 68 445 89
170 290 316 490 357 l62 13 0 243 c0 257 3 275 48 316 49 45 72 47 557 44 440
-2 461 -3 494 -22z"/>
<path d="M2270 3875 l0 -145 295 0 295 0 0 145 0 145 -295 0 -295 0 0 -145z"/>
<path d="M1971 3415 c-87 -22 -177 -73 -232 -133 -79 -86 -82 -98 -87 -326 -4
-190 -3 -199 15 -192 110 44 878 316 891 316 9 0 216 -72 460 -159 l443 -159
-3 197 c-3 184 -4 199 -27 245 -48 98 -178 188 -309 215 -81 17 -1080 13
-1151 -4z"/>
<path d="M1900 2539 c-278 -100 -509 -185 -514 -189 -5 -5 62 -198 157 -452
91 -244 175 -468 187 -499 19 -53 25 -60 103 -107 156 -95 242 -96 403 -5 39
22 95 48 123 58 l51 17 0 679 c0 373 -1 679 -2 679 -2 -1 -230 -82 -508 -181z"/>
<path d="M2712 2039 l3 -671 63 -23 c35 -13 86 -38 115 -57 70 -46 108 -58
187 -58 83 0 125 14 216 73 l70 46 182 488 c100 268 182 493 182 498 0 6 -188
78 -417 159 -230 82 -460 164 -511 182 l-92 34 2 -671z"/>
</g>
</svg>
